<svg width="60" height="60" viewBox="0 0 60 60" fill="none" xmlns="http://www.w3.org/2000/svg">
<rect width="60" height="60" fill="#F5F5F5"/>
<path d="M16.1426 10.1331C15.6973 10.4066 15.6816 10.4925 15.6816 12.8675C15.6816 14.8831 15.6895 15.055 15.8379 15.2894C16.1582 15.8206 15.1816 15.7816 28.666 15.7894H40.877L42.0488 17.3206C42.6973 18.1644 43.3223 18.9769 43.4473 19.1175C43.6973 19.4066 43.9473 19.4456 44.1426 19.2347C44.2598 19.1019 44.2754 18.6878 44.2754 14.8909C44.2754 10.2737 44.291 10.4144 43.8066 10.1253C43.6035 10.0081 42.4395 10.0003 29.9629 10.0003C17.5098 10.0081 16.3301 10.0159 16.1426 10.1331ZM22.3848 12.4222C22.7754 12.7894 22.627 13.3206 22.0879 13.4612C21.9473 13.5003 21.1113 13.5159 20.2285 13.5003L18.6348 13.4769L18.4473 13.2581C18.2051 12.9769 18.2051 12.7034 18.4551 12.4612L18.6426 12.2659H20.4316C22.1113 12.2659 22.2207 12.2737 22.3848 12.4222ZM30.9395 12.4222C31.1895 12.6253 31.252 12.8128 31.1504 13.0784C31.002 13.4847 30.7676 13.5159 28.1191 13.5159C25.6348 13.5159 25.2832 13.4769 25.1348 13.2034C24.9863 12.93 25.041 12.6019 25.2598 12.43C25.4629 12.2737 25.5566 12.2659 28.1035 12.2659C30.6348 12.2659 30.7441 12.2737 30.9395 12.4222ZM41.502 12.4612C41.752 12.7034 41.752 12.9769 41.5098 13.2581L41.3223 13.4769L37.8535 13.5003C34.0332 13.5316 33.8613 13.5159 33.6973 13.1097C33.5645 12.805 33.6113 12.6175 33.8691 12.4222C34.0566 12.2737 34.1973 12.2659 37.6895 12.2659H41.3145L41.502 12.4612Z" fill="#4089CE"/>
<path d="M16.1739 19.2195C15.6661 19.5242 15.6817 19.3992 15.6817 24.0633V28.282L15.877 28.3758C16.0098 28.4383 16.1426 28.4383 16.2676 28.3914C16.3692 28.3523 17.0254 27.5711 17.7911 26.5789L19.127 24.8445H28.5254H37.9239L38.1426 24.6726C38.5411 24.3601 38.5723 24.1726 38.5723 21.9539C38.5723 19.6883 38.5411 19.493 38.0879 19.2195C37.8301 19.0633 37.7286 19.0633 27.127 19.0633C16.6504 19.0633 16.4161 19.0633 16.1739 19.2195ZM21.4551 21.4461C21.8458 21.6414 21.9004 22.157 21.5723 22.4148C21.377 22.5633 21.2598 22.5789 20.0801 22.5789C18.6583 22.5789 18.3848 22.5086 18.2911 22.1336C18.2208 21.8758 18.3848 21.5633 18.6504 21.4305C18.9473 21.282 21.1661 21.2898 21.4551 21.4461ZM27.7911 21.4305C27.8926 21.4851 28.0333 21.618 28.0958 21.7273C28.2442 21.9851 28.1036 22.3601 27.8223 22.493C27.6973 22.5476 26.9551 22.5789 25.6739 22.5789H23.7129L23.4786 22.3445C23.2911 22.1492 23.252 22.0633 23.2989 21.8914C23.3614 21.6336 23.4786 21.4851 23.6895 21.407C23.9551 21.2976 27.5645 21.3133 27.7911 21.4305ZM35.752 21.5242C35.8379 21.6101 35.9317 21.7742 35.9551 21.8914C36.002 22.0633 35.9629 22.1492 35.7754 22.3445L35.5411 22.5789H32.7911H30.0489L29.8614 22.3836C29.5333 22.0633 29.6348 21.5867 30.0645 21.4148C30.1739 21.368 31.3145 21.3445 32.9239 21.3523C35.4864 21.368 35.6036 21.3758 35.752 21.5242Z" fill="#4089CE"/>
<path d="M17.8688 31.0628C17.0484 31.2816 16.4625 31.6253 15.7984 32.2972C14.7828 33.3207 14.3766 34.3675 14.4547 35.7816C14.6109 38.6019 17.1422 40.5863 19.9469 40.0707C21.6031 39.766 23.1109 38.3519 23.5328 36.68C23.6734 36.141 23.6891 35.1097 23.5641 34.516C23.5172 34.2894 23.3375 33.805 23.1578 33.4457C22.5953 32.2816 21.5094 31.3988 20.2125 31.055C19.6656 30.9066 18.4313 30.9144 17.8688 31.0628Z" fill="#4089CE"/>
<path d="M39.7051 31.0548C38.4551 31.3985 37.3535 32.3048 36.7988 33.4454C36.416 34.2188 36.3066 34.7032 36.3066 35.5704C36.3066 36.8517 36.7207 37.836 37.6348 38.7579C38.4941 39.6251 39.416 40.0548 40.6113 40.1329C43.1895 40.3048 45.3613 38.3751 45.502 35.7813C45.5801 34.3673 45.1738 33.3204 44.1582 32.297C43.4863 31.6173 42.9004 31.2735 42.0488 31.0548C41.4785 30.9142 40.2441 30.9142 39.7051 31.0548Z" fill="#4089CE"/>
<path d="M18.3383 40.9141C15.7211 41.1172 13.2992 42.4688 11.7055 44.6094C10.8773 45.7266 10.2445 47.2344 10.057 48.5703C9.94764 49.3047 9.9867 49.5469 10.2523 49.8125L10.4398 50H19.0414H27.6508L27.8773 49.7734C28.1508 49.5 28.1664 49.1875 27.9789 48.2031C27.2445 44.3281 23.9164 41.3281 19.932 40.9375C19.1664 40.8672 19.0101 40.8594 18.3383 40.9141Z" fill="#4089CE"/>
<path d="M39.9237 40.9375C36.0253 41.3438 32.6971 44.3828 31.9784 48.2031C31.7909 49.1875 31.8065 49.5 32.08 49.7734L32.3065 50H40.9159H49.5175L49.705 49.8125C49.9706 49.5469 50.0096 49.3047 49.9003 48.5703C49.7128 47.2344 49.08 45.7188 48.2518 44.6094C46.8456 42.7266 44.83 41.4609 42.6034 41.0547C41.7518 40.9063 40.705 40.8594 39.9237 40.9375Z" fill="#4089CE"/>
</svg>
