<svg width="60" height="60" viewBox="0 0 60 60" fill="none" xmlns="http://www.w3.org/2000/svg">
<rect width="60" height="60" fill="#F5F5F5"/>
<path d="M20.6 10.1064C20.525 10.1813 20.5 10.8896 20.5 12.7726V15.3389H26.2491H31.9982V12.7726C31.9982 10.8896 31.9732 10.1813 31.8982 10.1064C31.7566 9.96471 20.7416 9.96471 20.6 10.1064Z" fill="#4089CE"/>
<path d="M21.3671 17.6044C21.7087 18.2626 22.4419 19.6374 22.9835 20.6705L23.975 22.5453L26.2247 22.5703L28.4743 22.5869L30.0741 19.5624C30.9489 17.896 31.6655 16.5129 31.6655 16.4795C31.6655 16.4462 29.2075 16.4212 26.1997 16.4212H20.7422L21.3671 17.6044Z" fill="#4089CE"/>
<path d="M13.516 20.5203C13.441 20.5953 13.416 21.9117 13.416 25.9361V31.252H15.2074H16.9988V26.0194C16.9988 21.4202 16.9821 20.7703 16.8655 20.6036C16.7405 20.4286 16.6988 20.4203 15.1741 20.4203C14.0742 20.4203 13.5827 20.4536 13.516 20.5203Z" fill="#4089CE"/>
<path d="M35.5775 20.5786C35.5275 20.6869 35.4941 22.5366 35.4941 25.9944V31.252H41.0349H46.5757V25.9361C46.5757 21.9117 46.5507 20.5953 46.4758 20.5203C46.4008 20.4453 45.076 20.4203 41.0183 20.4203C35.8108 20.4203 35.6608 20.4286 35.5775 20.5786ZM43.9262 23.0616C44.0678 23.1865 44.0761 23.4032 44.0761 26.3694C44.0761 28.1191 44.0428 29.5855 44.0095 29.6355C43.8428 29.8938 43.5512 29.9188 40.9933 29.9188H38.402L38.2021 29.7105L37.9937 29.5106V26.4027C37.9937 23.7198 38.0104 23.2615 38.1271 23.1032C38.252 22.9199 38.252 22.9199 41.0099 22.9199C43.4596 22.9199 43.7845 22.9366 43.9262 23.0616Z" fill="#4089CE"/>
<path d="M39.0801 26.4206V28.8369H41.0381H42.9961V26.4206V24.0043H41.0381H39.0801V26.4206Z" fill="#4089CE"/>
<path d="M10.6666 21.9867C10.5083 22.07 10.2916 22.27 10.1916 22.4199C10.0083 22.6866 10 22.7449 10 24.9529C10 27.0609 10.0083 27.2275 10.1666 27.4858C10.6832 28.3273 11.9414 28.294 12.4496 27.4192C12.6163 27.1442 12.6246 26.9942 12.6246 24.9612C12.6246 22.9449 12.6163 22.7782 12.4579 22.5116C12.208 22.0867 11.8997 21.895 11.3998 21.8617C11.0748 21.8367 10.8832 21.87 10.6666 21.9867Z" fill="#4089CE"/>
<path d="M18.3813 22.0201C17.773 22.3784 17.748 22.495 17.748 25.0113C17.748 27.1776 17.7564 27.236 17.9397 27.5109C18.3146 28.0775 19.2062 28.2691 19.7477 27.8942C20.3726 27.4776 20.3726 27.4859 20.3976 25.103C20.4226 23.0116 20.4143 22.9533 20.231 22.595C19.9727 22.0951 19.6894 21.9035 19.1478 21.8618C18.7979 21.8368 18.6396 21.8701 18.3813 22.0201Z" fill="#4089CE"/>
<path d="M32.7697 22.0034C32.5197 22.1284 32.3697 22.2867 32.2531 22.5367C32.0865 22.8616 32.0781 23.0449 32.0781 25.0029C32.0781 27.0943 32.0781 27.1193 32.2864 27.4609C32.7947 28.3358 34.1361 28.2858 34.5777 27.3692C34.7444 27.036 34.7527 26.8943 34.7277 24.853C34.7027 22.8116 34.6944 22.67 34.5277 22.4533C34.0861 21.8618 33.4029 21.6868 32.7697 22.0034Z" fill="#4089CE"/>
<path d="M48.0958 21.9783C47.3959 22.32 47.3126 22.6866 47.346 25.1528C47.3709 26.9692 47.3876 27.1525 47.5459 27.4192C48.0542 28.294 49.3123 28.3273 49.8289 27.4858C49.9872 27.2275 49.9955 27.0609 49.9955 24.9529C49.9955 22.7449 49.9872 22.6866 49.8122 22.4199C49.4373 21.8784 48.6874 21.6867 48.0958 21.9783Z" fill="#4089CE"/>
<path d="M21.1641 24.9624V26.2539H26.2466H31.3291V24.9624V23.671H26.2466H21.1641V24.9624Z" fill="#4089CE"/>
<path d="M10.1 32.4362C10.0333 32.5029 10 32.9945 10 34.1026V35.669L10.2166 35.7524C10.5083 35.869 49.4855 35.869 49.7771 35.7524L49.9937 35.669V34.1026C49.9937 32.9945 49.9604 32.5029 49.8938 32.4362C49.7521 32.2946 10.2416 32.2946 10.1 32.4362Z" fill="#4089CE"/>
<path d="M11.666 43.301C11.666 47.5337 11.691 49.7334 11.7493 49.8417C11.8327 49.9917 11.991 50 17.6484 50C22.0644 50 23.4892 49.975 23.5642 49.9C23.6391 49.825 23.6641 48.5336 23.6641 44.6175V39.4267L23.8474 39.3017C24.0141 39.185 24.739 39.1684 29.9965 39.1684C35.254 39.1684 35.9789 39.185 36.1455 39.3017L36.3288 39.4267V44.6175C36.3288 48.5336 36.3538 49.825 36.4288 49.9C36.5038 49.975 37.9286 50 42.3446 50C48.002 50 48.1603 49.9917 48.2436 49.8417C48.302 49.7334 48.327 47.5337 48.327 43.301V36.9187H29.9965H11.666V43.301ZM21.1895 38.6768C21.5811 38.8517 21.6395 39.3767 21.2978 39.6016C21.2479 39.635 19.6148 39.6683 17.6734 39.6683C14.4989 39.6683 14.124 39.6516 13.9823 39.5266C13.8323 39.3933 13.7824 39.0434 13.899 38.8601C13.9323 38.8018 14.0573 38.7268 14.1656 38.6768C14.4656 38.5601 20.9312 38.5601 21.1895 38.6768ZM45.8023 38.6768C45.9273 38.7184 46.0606 38.8101 46.094 38.8601C46.2023 39.0267 46.169 39.36 46.019 39.5183C45.894 39.6599 45.669 39.6683 42.3362 39.6683C40.3865 39.6683 38.7451 39.635 38.6951 39.6016C38.6451 39.5683 38.5618 39.46 38.5035 39.36C38.3868 39.135 38.5118 38.8101 38.7784 38.6851C39.0201 38.5601 45.4857 38.5518 45.8023 38.6768ZM21.3145 42.4762C21.5978 42.7261 21.6228 42.9678 21.3812 43.2094L21.1729 43.4177H17.6901C13.7907 43.4177 13.8323 43.426 13.8323 42.8761C13.8323 42.3262 13.7907 42.3345 17.6734 42.3345C20.8646 42.3345 21.1562 42.3429 21.3145 42.4762ZM45.9773 42.4678C46.1023 42.5512 46.1606 42.6761 46.1606 42.8761C46.1606 43.426 46.2023 43.4177 42.3029 43.4177H38.8201L38.6201 43.2094C38.5035 43.1011 38.4118 42.9511 38.4118 42.8761C38.4118 42.8011 38.5035 42.6511 38.6201 42.5428L38.8201 42.3345H42.3029C45.3274 42.3345 45.819 42.3512 45.9773 42.4678ZM21.4062 46.3089C21.5978 46.5422 21.5811 46.7755 21.3645 47.0005C21.2562 47.1088 20.7313 47.1254 17.8484 47.1504C15.982 47.1588 14.3739 47.1504 14.2739 47.1254C13.8573 47.0255 13.6907 46.5422 13.974 46.2339C14.099 46.0923 14.3239 46.0839 17.6734 46.0839H21.2395L21.4062 46.3089ZM46.0106 46.2256C46.3106 46.5005 46.144 47.0255 45.719 47.1254C45.619 47.1504 44.011 47.1588 42.1446 47.1504C39.2617 47.1254 38.7368 47.1088 38.6285 47.0005C38.4118 46.7755 38.3952 46.5422 38.5868 46.3089L38.7534 46.0839H42.3029C45.4941 46.0839 45.869 46.1006 46.0106 46.2256Z" fill="#4089CE"/>
</svg>
