<svg width="60" height="60" viewBox="0 0 60 60" fill="none" xmlns="http://www.w3.org/2000/svg">
<rect width="60" height="60" fill="#F5F5F5"/>
<path d="M34.9009 10.0745C33.4942 10.2542 31.9782 10.645 30.5168 11.1998C29.4149 11.6218 29.1414 11.7781 28.9617 12.1141C28.8366 12.3564 28.8288 12.7081 28.8523 16.8265L28.8835 21.2809L29.0867 22.0311C30.0401 25.5321 32.4236 28.1188 35.7527 29.2519C37.0109 29.6739 37.7376 29.588 39.4491 28.7752C40.6057 28.2282 41.3715 27.689 42.2858 26.7903C43.4581 25.6259 44.3177 24.2192 44.81 22.6563C45.2242 21.3512 45.2476 21.0152 45.2476 16.4982C45.2476 12.6612 45.2398 12.3017 45.1148 12.0829C44.935 11.7859 44.685 11.6374 43.7159 11.2545C42.3249 10.6997 40.5979 10.262 39.074 10.0667C38.2925 9.9729 35.6746 9.98072 34.9009 10.0745ZM40.129 16.4748C40.6916 16.8186 40.7854 17.6079 40.34 18.1706C40.2071 18.3347 39.3709 19.1943 38.4722 20.0774C37.1437 21.3981 36.7842 21.7107 36.5185 21.7888C35.9637 21.9608 35.6589 21.781 34.557 20.6713C34.0413 20.1477 33.5724 19.6163 33.5333 19.4991C33.2442 18.7567 33.7912 17.9596 34.5883 17.9596C34.9478 17.9596 35.2916 18.1784 35.8699 18.7723L36.2138 19.1318L37.5501 17.8111C38.2769 17.0843 38.9489 16.4513 39.0349 16.4045C39.2928 16.2716 39.8476 16.3029 40.129 16.4748Z" fill="#4089CE"/>
<path d="M18.7829 12.3248C18.4703 12.4029 18.2202 12.5827 18.0405 12.8562C17.9076 13.0594 17.892 13.2782 17.892 15.8414C17.892 18.475 17.8998 18.6157 18.0483 18.8579C18.4625 19.53 19.6659 19.53 20.0801 18.8579C20.2208 18.6391 20.2364 18.475 20.2364 17.5216V16.4354L21.8932 18.0999L23.5577 19.7566L20.8538 22.4684C19.3612 23.9688 18.0874 25.2739 18.017 25.3833C17.8373 25.6568 17.8529 26.3757 18.0405 26.6649C18.2827 27.0244 18.5797 27.1807 19.0642 27.1807C19.3377 27.1807 19.5722 27.1338 19.6894 27.0556C19.9707 26.8681 25.9959 20.8663 26.2616 20.5069C26.4492 20.2568 26.4882 20.1239 26.4882 19.7645C26.4882 19.4831 26.4413 19.2487 26.3632 19.1315C26.2929 19.022 25.2769 17.9749 24.1125 16.8027L21.9947 14.677H23.0419C24.222 14.677 24.5033 14.5911 24.769 14.1691C24.98 13.833 24.98 13.1844 24.7768 12.8484C24.6908 12.7155 24.5033 12.5358 24.3626 12.4498C24.1204 12.3013 23.9562 12.2935 21.5649 12.2779C20.1661 12.2701 18.9157 12.2935 18.7829 12.3248Z" fill="#4089CE"/>
<path d="M23.1299 31.354C22.239 31.5572 21.3247 31.9557 20.5901 32.4793C20.1524 32.7919 10.5794 42.2946 10.2277 42.7635C10.0401 43.0136 10.0011 43.1465 10.0011 43.4981C10.0011 44.2796 9.79007 44.1311 15.3073 47.2101C20.0821 49.875 20.3244 50 20.7073 50C20.9339 50 21.1996 49.9453 21.3168 49.875C21.4341 49.8124 22.3562 48.7575 23.3643 47.5383L25.2008 45.319H31.7339C39.1189 45.3111 38.8454 45.3346 40.0723 44.686C40.9788 44.2093 48.8014 38.6686 49.2859 38.1606C49.8095 37.6058 50.0127 37.0744 50.0127 36.246C50.0127 35.3629 49.8095 34.855 49.1999 34.2454C48.5826 33.6281 48.0512 33.4093 47.1603 33.4093C46.7461 33.4093 46.4257 33.4483 46.2225 33.5421C46.0506 33.6124 44.8862 34.2611 43.6358 34.9722L41.3617 36.2773L41.2367 36.8556C40.9006 38.3951 39.8457 39.7314 38.4077 40.4269C37.3762 40.9271 37.3137 40.9349 32.5076 40.9349C28.3892 40.9349 28.1626 40.9271 27.9438 40.7864C27.2326 40.3175 27.2561 39.2469 27.9907 38.8483C28.2251 38.7155 28.6002 38.7077 32.6248 38.6686L37.0011 38.6295L37.4309 38.4107C37.9936 38.1216 38.5328 37.5902 38.8063 37.0353C39.0173 36.6368 39.0329 36.5273 39.0329 35.7381C39.0329 34.9644 39.0095 34.8394 38.8219 34.4486C38.3921 33.5734 37.5325 32.9482 36.5635 32.8075C36.2899 32.7684 34.4457 32.7294 32.4763 32.7294H28.8894L28.4127 32.4246C27.0294 31.5572 25.9823 31.2367 24.5053 31.2524C23.9895 31.2602 23.3643 31.3071 23.1299 31.354Z" fill="#4089CE"/>
</svg>
