<svg width="60" height="60" viewBox="0 0 60 60" fill="none" xmlns="http://www.w3.org/2000/svg">
<rect width="60" height="60" fill="#F5F5F5"/>
<path d="M29.3272 10.0178C26.1643 10.3904 23.6254 11.5949 21.5284 13.6919C19.7086 15.5116 18.5388 17.7126 18.0536 20.2082C17.9669 20.6761 17.8889 21.2394 17.8889 21.456C17.8889 21.8113 17.8543 21.8806 17.447 22.2532C16.6844 22.9464 16.6758 22.9724 16.6758 25.9013C16.6758 27.6604 16.7104 28.5529 16.7798 28.8042C16.9184 29.2721 17.5596 29.9134 18.0276 30.052C18.9028 30.312 19.83 30.1127 20.3759 29.5494C20.9651 28.9515 20.9651 28.9255 20.9651 25.9966C20.9651 23.3884 20.9651 23.3451 20.7571 22.9291C20.6358 22.6865 20.4105 22.4179 20.2199 22.2792C19.9253 22.0799 19.8906 22.0106 19.882 21.6813C19.882 21.1787 20.0986 20.1302 20.4105 19.203C21.5977 15.6329 24.7519 12.9033 28.5213 12.1668C29.5351 11.9675 31.3722 11.9675 32.386 12.1668C36.7793 13.0246 40.2281 16.5514 40.9387 20.9101C41.0947 21.8633 41.06 22.0279 40.6874 22.2792C40.4968 22.4179 40.2715 22.6865 40.1501 22.9291C39.9508 23.3451 39.9422 23.423 39.9162 25.7973C39.8989 27.1491 39.9249 28.3796 39.9682 28.5356C40.0548 28.8302 40.0462 28.8302 39.5696 29.1075C38.5297 29.7054 36.944 30.2253 35.6702 30.3813C35.2802 30.4333 35.1849 30.416 35.0203 30.2686C34.6563 29.9307 34.4744 29.896 33.2439 29.896C32.1347 29.896 32.0134 29.9134 31.7448 30.0953C30.9562 30.6153 30.9736 31.6638 31.7708 32.2617C31.9441 32.3917 32.1867 32.4436 32.8193 32.4783C34.0758 32.539 34.561 32.4523 34.9596 32.097C35.2542 31.8284 35.3842 31.7851 36.1208 31.6724C37.8885 31.4038 39.4569 30.8579 40.5921 30.104C40.8954 29.9047 40.9214 29.896 41.2246 30.026C41.6059 30.182 42.3858 30.1993 42.8797 30.052C43.3477 29.9134 43.9889 29.2721 44.1275 28.8042C44.1969 28.5529 44.2315 27.6604 44.2315 25.9013C44.2315 22.9724 44.2229 22.9464 43.4603 22.2532C43.053 21.8806 43.0184 21.8113 43.0184 21.456C43.0184 20.8841 42.7238 19.4716 42.4205 18.5618C41.3893 15.4769 39.0583 12.7993 36.1294 11.3262C34.431 10.477 32.7586 10.0611 30.8003 10.0091C30.159 9.99178 29.4918 10.0004 29.3272 10.0178Z" fill="#4089CE"/>
<path d="M29.543 14.0475C28.4252 14.1515 27.498 14.4114 26.5101 14.8967C25.0717 15.6072 24.0319 16.6124 23.2606 18.0422C21.9435 20.4945 21.7962 23.9433 22.8707 27.1841C23.382 28.7266 24.3178 30.4163 25.5136 31.976C26.4928 33.2412 26.6748 33.9344 26.2588 34.7836C25.9729 35.3642 25.4616 35.7281 24.2572 36.2134C22.5154 36.898 19.9678 38.2411 18.2088 39.4022C17.1169 40.1128 15.8605 41.3519 15.5312 42.0278C14.9853 43.1283 14.8379 44.6967 15.1932 45.6846C16.0944 48.2582 19.6819 49.584 26.5535 49.9133C31.1461 50.1299 36.3799 49.9306 39.3781 49.428C42.6883 48.8734 44.872 47.7729 45.5739 46.3172C45.9898 45.4593 46.0245 43.6916 45.6605 42.5911C45.2359 41.3259 44.0314 40.0608 42.2204 38.9603C41.3018 38.3971 38.9102 37.2532 37.7751 36.8286C36.3626 36.3 35.6434 35.9274 35.1495 35.4855C34.6382 35.0262 34.4822 34.619 34.5516 33.9257L34.5949 33.4925H33.2431C31.7093 33.4925 31.51 33.4405 30.8861 32.8772C29.6383 31.7508 29.9416 29.8097 31.4754 29.0558C31.952 28.8219 32.0213 28.8132 33.2691 28.8132C34.5256 28.8132 34.5862 28.8219 35.0801 29.0645C35.5914 29.3158 35.6001 29.3158 36.25 29.2118C37.3678 29.0212 37.3765 29.0125 37.7924 27.938C38.7023 25.5724 38.9882 23.7353 38.7716 21.6643C38.5376 19.4113 37.8531 17.7822 36.5706 16.4045C35.2621 15.0007 33.5897 14.2295 31.458 14.0388C30.9295 13.9955 30.4615 13.9608 30.4095 13.9608C30.3662 13.9695 29.9763 14.0042 29.543 14.0475Z" fill="#4089CE"/>
</svg>
